<svg xmlns="http://www.w3.org/2000/svg" width="250" height="57.517" viewBox="59.916 71.241 250 57.517"><path d="M172.33 114.522c-.342 1.936-1.025 3.645-2.164 5.239-1.139 1.595-2.733 2.961-4.784 4.1-2.164 1.139-4.897 1.595-8.542 1.595-2.05 0-3.986-.228-5.809-.797-1.936-.569-3.531-1.481-5.011-2.62-1.481-1.139-2.62-2.733-3.531-4.556-.911-1.822-1.367-4.1-1.367-6.72v-4.214h9.567v2.278c0 1.139.114 2.278.228 3.189.228 1.025.456 1.822.911 2.506s1.025 1.253 1.822 1.595c.797.456 1.822.683 3.075.683 1.367 0 2.506-.228 3.189-.683.797-.456 1.367-1.139 1.595-1.936.342-.797.569-1.595.569-2.506.114-.911.114-1.822.114-2.62V76.481h10.592v32.916a27.387 27.387 0 0 1-.454 5.125zm33.713-38.041l17.995 47.95h-10.934l-3.645-10.706h-17.995l-3.759 10.706h-10.592l18.109-47.95h10.821zm.57 29.498l-6.036-17.654h-.114l-6.264 17.654h12.414zm29.613 6.72a7.706 7.706 0 0 0 2.278 2.733c.911.683 2.05 1.253 3.417 1.595 1.253.342 2.62.456 3.986.456.911 0 1.936-.114 3.075-.228 1.025-.114 2.05-.456 3.075-.911.911-.456 1.708-1.025 2.392-1.822.683-.797.911-1.822.911-2.961 0-1.253-.456-2.392-1.253-3.189s-1.936-1.481-3.303-2.05a23.907 23.907 0 0 0-4.556-1.367c-1.708-.456-3.417-.797-5.125-1.367-1.822-.456-3.531-1.025-5.239-1.595-1.708-.683-3.189-1.481-4.556-2.506-1.367-1.025-2.392-2.278-3.303-3.872-.797-1.595-1.253-3.417-1.253-5.581 0-2.506.569-4.556 1.595-6.378 1.025-1.822 2.392-3.303 4.1-4.556 1.708-1.253 3.645-2.05 5.809-2.733 2.164-.569 4.328-.911 6.492-.911 2.506 0 4.898.228 7.175.797 2.278.569 4.328 1.481 6.15 2.733 1.822 1.253 3.189 2.847 4.214 4.784 1.025 1.936 1.595 4.328 1.595 7.062h-10.251c-.114-1.481-.342-2.62-.911-3.531s-1.253-1.708-2.05-2.164c-.797-.569-1.822-.911-2.961-1.139-1.139-.228-2.278-.342-3.645-.342-.797 0-1.708.114-2.506.228-.797.228-1.595.456-2.278.911a6.105 6.105 0 0 0-1.708 1.708c-.456.683-.683 1.481-.683 2.506 0 .911.228 1.708.569 2.278.342.569 1.025 1.139 2.164 1.595 1.025.456 2.506 1.025 4.328 1.481s4.328 1.139 7.289 1.936c.911.228 2.164.456 3.759 1.025 1.595.456 3.189 1.253 4.784 2.278 1.595 1.025 2.961 2.392 4.1 4.1 1.139 1.708 1.708 3.986 1.708 6.606 0 2.164-.456 4.214-1.253 6.15-.797 1.936-2.164 3.531-3.759 4.897-1.595 1.367-3.759 2.392-6.264 3.189-2.506.797-5.353 1.139-8.656 1.139-2.62 0-5.239-.342-7.745-1.025s-4.67-1.708-6.606-3.075-3.417-3.189-4.556-5.353c-1.139-2.164-1.708-4.67-1.595-7.631h10.251a7.795 7.795 0 0 0 .799 4.1zm57.175-36.218c2.961 0 5.581.456 7.631 1.367s3.872 2.05 5.125 3.417c1.367 1.481 2.278 3.075 2.847 4.897s.911 3.759.911 5.695-.342 3.872-.911 5.695c-.569 1.822-1.595 3.531-2.847 4.897-1.367 1.481-3.075 2.62-5.125 3.417-2.05.911-4.67 1.367-7.631 1.367h-11.048v17.198h-10.592v-47.95h21.64zm-2.847 22.665c1.253 0 2.392-.114 3.531-.228a11.325 11.325 0 0 0 2.961-1.025 7.462 7.462 0 0 0 2.05-2.164c.569-.911.797-2.164.797-3.645s-.228-2.733-.797-3.645c-.569-.911-1.253-1.708-2.05-2.164-.797-.569-1.822-.911-2.961-1.025-1.139-.228-2.278-.228-3.531-.228h-8.2v14.351h8.2v-.227z" fill="#FFF"/><circle fill="#8BC53D" cx="87.934" cy="99.829" r="28.018"/><path fill="#FFF" d="M130.417 128.759c-.683 0-1.139-.456-1.139-1.139V72.38c0-.683.456-1.139 1.139-1.139s1.139.456 1.139 1.139v55.239c0 .57-.456 1.14-1.139 1.14zm-28.36-49.203c-.342-.456-.797-.797-1.367-.911h-.342c-1.025 0-1.936.683-2.05 1.708v.342L91.465 83.2c-.342-.456-.911-.797-1.481-.911-1.367-.228-2.62.683-2.847 1.936-.228 1.025.342 2.05 1.253 2.506l-5.239 29.841c-.797 0-1.481.456-1.936 1.025l-7.175-3.872v-.228c.114-.456 0-1.025-.342-1.481a1.164 1.164 0 0 0-.683-.569l1.025-5.695c.342 0 .683-.228.911-.342l8.428 4.67.228-1.253-7.973-4.442v-.57l3.303-1.025.228.228c.114.114.114.114.228.114l-.569 3.075.797.456.569-3.303c.797-.114 1.481-.683 1.481-1.595 0-.911-.683-1.595-1.595-1.595-.569 0-1.139.342-1.367.911l-.114.456v.342l-3.189 1.025s0-.114-.114-.114c-.342-.456-.683-.683-1.253-.797h-.342c-.911 0-1.708.683-1.936 1.595-.114.797.228 1.595 1.025 2.05l-1.025 5.695c-.797.114-1.481.683-1.595 1.595-.114.456 0 1.025.342 1.481.342.456.683.683 1.253.797.569.114 1.025 0 1.481-.342l7.403 3.986c0 .569.114 1.139.456 1.595.342.569.911.911 1.595 1.025h.456c1.139 0 2.164-.797 2.392-2.05v-.228l7.062-2.506c.342.342.797.569 1.253.683h.342c1.025 0 1.936-.683 2.05-1.708.114-.569 0-1.139-.342-1.595-.114-.228-.342-.342-.456-.456l5.353-30.638c.797-.228 1.481-.797 1.595-1.708.112-.569-.002-1.139-.344-1.708zm-21.982 21.64c.342 0 .569.228.569.569s-.228.569-.569.569c-.342 0-.569-.228-.569-.569.114-.341.341-.569.569-.569zm4.214 17.995c-.114.683-.797 1.139-1.367 1.025-.342 0-.569-.228-.797-.456-.114-.228-.228-.342-.228-.569v-.228c0-.114.114-.228.114-.342.228-.342.569-.569 1.025-.569h.228c.228 0 .456.228.683.342v.114c.114.114.114.228.114.228.228 0 .228.228.228.455zm14.921-36.56l-5.353 30.524c-.911.114-1.595.797-1.822 1.708v.228l-7.062 2.506c-.114-.228-.342-.342-.456-.569L89.87 86.96a2.181 2.181 0 0 0 1.936-1.936v-.342l6.834-2.506c.228.227.342.341.57.455zm-9.454 3.189H89.3c-.114 0-.342-.114-.456-.228-.342-.228-.569-.683-.569-1.253.114-.683.683-1.139 1.367-1.025.228 0 .569.228.683.456.228.228.342.569.228.911.001.683-.341 1.025-.797 1.139zm3.189 29.157h.228c.114-.342.342-.569.683-.683h.342c.228 0 .342.114.569.342v.114c.114.228.228.456.114.683-.114.456-.569.797-1.025.683-.228 0-.342-.114-.456-.228l-.114-.114c-.114-.114-.114-.228-.114-.456v-.228l-.227-.113zm6.492-34.282c.114-.456.456-.797.911-.797h.114c.114 0 .342.114.456.228.228.228.342.569.342.797 0 .342-.228.569-.569.683-.114 0-.342.114-.456 0-.228 0-.456-.228-.569-.342-.229-.114-.229-.341-.229-.569zm-26.651 32.688c-.114.228-.228.456-.456.569-.114.114-.228.114-.456 0-.228 0-.342-.114-.456-.342-.114-.114-.114-.342-.114-.456 0-.228.228-.456.569-.569h.228c.114 0 .228 0 .228.114.114 0 .114.114.228.228.115.114.229.228.229.456zm.228-9.568c.114-.342.342-.569.683-.569h.114c.228 0 .342.114.456.342.114.114.114.342.114.456v.114c0 .228-.228.342-.342.456l-.114.114h-.342c-.114 0-.228 0-.228-.114-.341-.229-.455-.571-.341-.799z"/></svg>